<!DOCTYPE svg PUBLIC "-//W3C//DTD SVG 1.1//EN" "http://www.w3.org/Graphics/SVG/1.1/DTD/svg11.dtd">
<!-- Uploaded to: SVG Repo, www.svgrepo.com, Transformed by: SVG Repo Mixer Tools -->
<svg width="800px" height="800px" viewBox="0 0 28.00 28.00" fill="none" xmlns="http://www.w3.org/2000/svg" stroke="#000000" stroke-width="0.28">
<g id="SVGRepo_bgCarrier" stroke-width="0"/>
<g id="SVGRepo_tracerCarrier" stroke-linecap="round" stroke-linejoin="round" stroke="#CCCCCC" stroke-width="0.22400000000000003"/>
<g id="SVGRepo_iconCarrier">
<path clip-rule="evenodd" d="M4 2C2.34315 2 1 3.35522 1 5.02697V19.1529C1 20.8246 2.34315 22.1798 4 22.1798H17.6492L22.0504 25.7324C22.8361 26.3666 24 25.8022 24 24.7869V22.1798C25.6569 22.1798 27 20.8246 27 19.1529V5.02697C27 3.35522 25.6569 2 24 2H4ZM3 5.02697C3 4.46972 3.44772 4.01798 4 4.01798H24C24.5523 4.01798 25 4.46972 25 5.02697V19.1529C25 19.7101 24.5523 20.1618 24 20.1618H22.6C22.2686 20.1618 22 20.4329 22 20.7672V22.689C22 22.8571 21.8052 22.9502 21.6744 22.8446L18.5151 20.2945C18.4087 20.2086 18.2766 20.1618 18.1403 20.1618H4C3.44771 20.1618 3 19.7101 3 19.1529V5.02697Z" fill="#13AB99" fill-rule="evenodd"/>
</g>
</svg>